<?xml version="1.0" encoding="utf-8"?>
<!-- Generator: Adobe Illustrator 23.0.3, SVG Export Plug-In . SVG Version: 6.00 Build 0)  -->
<svg version="1.1" id="Layer_1" xmlns="http://www.w3.org/2000/svg" xmlns:xlink="http://www.w3.org/1999/xlink" x="0px" y="0px"
	 viewBox="0 0 512 512" style="enable-background:new 0 0 512 512;" xml:space="preserve" fill="#FFFFFF">
<path d="M232,136v-16H128c-2.1,0-4.1,0.8-5.6,2.3c-1.6,1.5-2.5,3.5-2.4,5.7c0,4.4,3.6,8,8,8H232z"/>
<path d="M168,96c0-4.4-3.6-8-8-8s-8,3.6-8,8v8h16V96z"/>
<path d="M256,48c-4.4,0-8,3.6-8,8v424h16V56C264,51.6,260.4,48,256,48z"/>
<path d="M280,304h48v-48h-48V304z M296,272h16v16h-16V272z"/>
<path d="M280,216h56v24h-56V216z"/>
<path d="M360,96c0-4.4-3.6-8-8-8s-8,3.6-8,8v8h16V96z"/>
<path d="M369,136h15c2.1,0,4.1-0.8,5.6-2.3c1.6-1.5,2.5-3.5,2.4-5.7c0-4.4-3.6-8-8-8H280v16h65.7"/>
<path d="M325.7,157.7c3.1-3.2,3-8.2-0.2-11.3c-3.1-3-8-3-11.1,0l-42,42c-3.2,3.1-3.3,8.1-0.2,11.3c3.1,3.2,8.1,3.3,11.3,0.2
	c0.1-0.1,0.1-0.1,0.2-0.2L325.7,157.7z"/>
<path d="M197.7,146.3c-3.2-3.1-8.2-3-11.3,0.2c-3,3.1-3,8,0,11.1l40,40c3.2,3.1,8.2,3,11.3-0.2c3-3.1,3-8,0-11.1L197.7,146.3z"/>
</svg>
