<svg id="Capa_1" enable-background="new 0 0 512 512" height="512" viewBox="0 0 512 512" width="512" xmlns="http://www.w3.org/2000/svg" fill="#FFFFFF"><g><path d="m205.816 202.706h27.073c4.142 0 7.5-3.358 7.5-7.5s-3.358-7.5-7.5-7.5h-27.073c-4.142 0-7.5 3.358-7.5 7.5s3.358 7.5 7.5 7.5z"/><path d="m205.816 229.082h27.073c4.142 0 7.5-3.358 7.5-7.5s-3.358-7.5-7.5-7.5h-27.073c-4.142 0-7.5 3.358-7.5 7.5s3.358 7.5 7.5 7.5z"/><path d="m504.5 249.751c-4.142 0-7.5 3.358-7.5 7.5v55.277h-27.219v-96.888c0-3.683-1.435-7.146-4.039-9.75l-14.146-14.146c-2.604-2.604-6.067-4.039-9.75-4.039h-37.684v-25.35c0-11.714-9.53-21.244-21.245-21.244h-197.957v-16.595c0-8.01-6.517-14.527-14.527-14.527h-120.091c-8.01 0-14.527 6.517-14.527 14.527v16.595h-23.074c-7.025.001-12.741 5.717-12.741 12.742v54.057c0 4.142 3.358 7.5 7.5 7.5s7.5-3.358 7.5-7.5v-13.027h149.971c5.518 0 10.705-2.149 14.605-6.05l7.892-7.892c1.069-1.068 2.489-1.657 3.999-1.657h28.268c11.389 0 20.655-9.266 20.655-20.655v-2.517h43.468v25.338c0 11.721 9.535 21.256 21.256 21.256h136.23l13.437 13.437v6.494h-26.115c-7.419 0-13.456 6.036-13.456 13.455v32.448c0 7.419 6.036 13.456 13.456 13.456h26.115v30.534h-85.076l-37.187-49.44c-3.626-4.822-9.395-7.702-15.429-7.702h-302.089v-12.478c0-4.142-3.358-7.5-7.5-7.5s-7.5 3.358-7.5 7.5v136.751c0 7.025 5.716 12.741 12.741 12.741h34.312c4.369 0 8.382-2.198 10.735-5.879l12.128-18.974c-.034.611-.056 1.224-.056 1.84 0 17.987 14.638 32.62 32.63 32.62 17.986 0 32.62-14.633 32.62-32.62 0-3.363-.518-6.654-1.5-9.785h3.87c-.982 3.131-1.5 6.423-1.5 9.785 0 17.987 14.633 32.62 32.62 32.62s32.62-14.633 32.62-32.62c0-.619-.023-1.234-.057-1.848l10.588 16.563c3.321 5.195 8.985 8.297 15.151 8.297h15.424c4.142 0 7.5-3.358 7.5-7.5s-3.358-7.5-7.5-7.5h-15.424c-1.022 0-1.962-.515-2.513-1.375l-16.327-25.543c-2.353-3.681-6.367-5.878-10.735-5.878h-123.57c-4.369 0-8.381 2.198-10.735 5.879l-17.207 26.918h-30.815v-49.874h482v49.874h-23.478l-17.207-26.917c-2.353-3.682-6.366-5.88-10.736-5.88h-123.568c-4.37 0-8.383 2.198-10.735 5.879l-16.327 25.542c-.551.861-1.491 1.376-2.513 1.376h-15.109c-4.142 0-7.5 3.358-7.5 7.5s3.358 7.5 7.5 7.5h15.109c6.166 0 11.83-3.102 15.151-8.297l10.296-16.107c-.019.463-.033.927-.033 1.392 0 17.987 14.633 32.62 32.62 32.62 17.992 0 32.63-14.633 32.63-32.62 0-3.363-.518-6.654-1.5-9.785h3.86c-.982 3.131-1.5 6.423-1.5 9.785 0 17.987 14.638 32.62 32.63 32.62 17.987 0 32.62-14.633 32.62-32.62 0-.775-.036-1.545-.09-2.312l12.429 19.444c2.353 3.682 6.366 5.88 10.736 5.88h26.974c7.025 0 12.741-5.716 12.741-12.741v-122.41c0-4.142-3.358-7.5-7.5-7.5zm-115.338-87.395v25.35h-37.652v-31.594h31.407c3.444 0 6.245 2.801 6.245 6.244zm-338.347-37.366h119.145v16.122h-119.145zm174.575 33.639c0 3.118-2.537 5.655-5.655 5.655h-28.268c-5.516 0-10.703 2.148-14.605 6.05l-7.893 7.893c-1.068 1.068-2.487 1.656-3.998 1.656h-149.971v-23.771h210.39zm73.468 22.821v-25.338h37.652v31.594h-31.396c-3.45 0-6.256-2.807-6.256-6.256zm131.353 85.545v-29.359h24.57v29.359zm-310.101 102.395c0 9.716-7.904 17.62-17.62 17.62-9.721 0-17.63-7.904-17.63-17.62 0-3.53 1.05-6.911 2.979-9.785h29.293c1.928 2.874 2.978 6.255 2.978 9.785zm48.49 17.62c-9.716 0-17.62-7.904-17.62-17.62 0-3.53 1.05-6.911 2.979-9.785h29.283c1.929 2.874 2.979 6.255 2.979 9.785-.001 9.716-7.905 17.62-17.621 17.62zm151.93-114.905 30.405 40.424h-83.55v-42.142h49.704c1.346 0 2.632.642 3.441 1.718zm-179.337-1.718h48.096v42.142h-48.096zm-15 42.142h-48.097v-42.142h48.097zm78.096-42.142h48.097v42.142h-48.097zm-141.193 0v42.142h-48.096v-42.142zm305.004 99.003c0 9.716-7.909 17.62-17.63 17.62-9.716 0-17.62-7.904-17.62-17.62 0-3.53 1.05-6.911 2.979-9.785h29.293c1.928 2.874 2.978 6.255 2.978 9.785zm48.49 17.62c-9.721 0-17.63-7.904-17.63-17.62 0-3.53 1.05-6.911 2.979-9.785h29.293c1.928 2.874 2.979 6.255 2.979 9.785-.001 9.716-7.905 17.62-17.621 17.62z"/></g></svg>